<svg width="150" height="40" viewBox="0 0 150 40" fill="none" xmlns="http://www.w3.org/2000/svg">
<path d="M14.2499 23.821V35.8332H17.4166V23.8234L25.9084 32.3153L28.1476 30.0761L19.6547 21.5832H31.665V18.4165H19.6545L28.1474 9.92358L25.9082 7.68441L17.4166 16.176V4.1665H14.2499V16.1784L5.75591 7.68438L3.51674 9.92355L12.0097 18.4165H-0.00162506V21.5832H12.0094L3.5165 30.0761L5.75567 32.3153L14.2499 23.821Z" fill="#FF4564"/>
<path d="M41.6667 27.4998V11.1665H47.5233L50.7667 25.3998H51.1867V11.1665H54.22V27.4998H48.3633L45.12 13.2665H44.7V27.4998H41.6667Z" fill="#0C111D"/>
<path d="M61.7315 27.8265C60.5804 27.8265 59.546 27.5932 58.6282 27.1265C57.7104 26.6598 56.9871 25.9832 56.4582 25.0965C55.9293 24.2098 55.6648 23.1443 55.6648 21.8998V21.5265C55.6648 20.2821 55.9293 19.2165 56.4582 18.3298C56.9871 17.4432 57.7104 16.7665 58.6282 16.2998C59.546 15.8332 60.5804 15.5998 61.7315 15.5998C62.8826 15.5998 63.9171 15.8332 64.8348 16.2998C65.7526 16.7665 66.476 17.4432 67.0048 18.3298C67.5337 19.2165 67.7982 20.2821 67.7982 21.5265V21.8998C67.7982 23.1443 67.5337 24.2098 67.0048 25.0965C66.476 25.9832 65.7526 26.6598 64.8348 27.1265C63.9171 27.5932 62.8826 27.8265 61.7315 27.8265ZM61.7315 25.2132C62.6337 25.2132 63.3804 24.9254 63.9715 24.3498C64.5626 23.7587 64.8582 22.9187 64.8582 21.8298V21.5965C64.8582 20.5076 64.5626 19.6754 63.9715 19.0998C63.396 18.5087 62.6493 18.2132 61.7315 18.2132C60.8293 18.2132 60.0826 18.5087 59.4915 19.0998C58.9004 19.6754 58.6048 20.5076 58.6048 21.5965V21.8298C58.6048 22.9187 58.9004 23.7587 59.4915 24.3498C60.0826 24.9254 60.8293 25.2132 61.7315 25.2132Z" fill="#0C111D"/>
<path d="M69.3453 27.4998V15.9265H72.2386V17.2332H72.6586C72.8297 16.7665 73.1097 16.4243 73.4986 16.2065C73.9031 15.9887 74.3697 15.8798 74.8986 15.8798H76.2986V18.4932H74.852C74.1053 18.4932 73.4908 18.6954 73.0086 19.0998C72.5264 19.4887 72.2853 20.0954 72.2853 20.9198V27.4998H69.3453Z" fill="#0C111D"/>
<path d="M81.9631 27.8265C80.4543 27.8265 79.2176 27.4998 78.2531 26.8465C77.2887 26.1932 76.7054 25.2598 76.5031 24.0465L79.2098 23.3465C79.3187 23.891 79.4976 24.3187 79.7465 24.6298C80.0109 24.941 80.3298 25.1665 80.7031 25.3065C81.092 25.431 81.512 25.4932 81.9631 25.4932C82.6476 25.4932 83.1531 25.3765 83.4798 25.1432C83.8065 24.8943 83.9698 24.591 83.9698 24.2332C83.9698 23.8754 83.8143 23.6032 83.5031 23.4165C83.192 23.2143 82.6943 23.051 82.0098 22.9265L81.3565 22.8098C80.5476 22.6543 79.8087 22.4443 79.1398 22.1798C78.4709 21.8998 77.9343 21.5187 77.5298 21.0365C77.1254 20.5543 76.9231 19.9321 76.9231 19.1698C76.9231 18.0187 77.3431 17.1398 78.1831 16.5332C79.0231 15.911 80.1276 15.5998 81.4965 15.5998C82.7876 15.5998 83.8609 15.8876 84.7165 16.4632C85.572 17.0387 86.132 17.7932 86.3965 18.7265L83.6665 19.5665C83.542 18.9754 83.2854 18.5554 82.8965 18.3065C82.5231 18.0576 82.0565 17.9332 81.4965 17.9332C80.9365 17.9332 80.5087 18.0343 80.2131 18.2365C79.9176 18.4232 79.7698 18.6876 79.7698 19.0298C79.7698 19.4032 79.9254 19.6832 80.2365 19.8698C80.5476 20.041 80.9676 20.1732 81.4965 20.2665L82.1498 20.3832C83.0209 20.5387 83.8065 20.7487 84.5065 21.0132C85.222 21.2621 85.782 21.6276 86.1865 22.1098C86.6065 22.5765 86.8165 23.2143 86.8165 24.0232C86.8165 25.2365 86.3731 26.1776 85.4865 26.8465C84.6154 27.4998 83.4409 27.8265 81.9631 27.8265Z" fill="#0C111D"/>
<path d="M93.4995 27.8265C92.3484 27.8265 91.3295 27.5854 90.4428 27.1032C89.5717 26.6054 88.8873 25.9132 88.3895 25.0265C87.9073 24.1243 87.6661 23.0665 87.6661 21.8532V21.5732C87.6661 20.3598 87.9073 19.3098 88.3895 18.4232C88.8717 17.521 89.5484 16.8287 90.4195 16.3465C91.2906 15.8487 92.3017 15.5998 93.4528 15.5998C94.5884 15.5998 95.5761 15.8565 96.4161 16.3698C97.2561 16.8676 97.9095 17.5676 98.3761 18.4698C98.8428 19.3565 99.0761 20.391 99.0761 21.5732V22.5765H90.6528C90.6839 23.3698 90.9795 24.0154 91.5395 24.5132C92.0995 25.011 92.7839 25.2598 93.5928 25.2598C94.4173 25.2598 95.0239 25.081 95.4128 24.7232C95.8017 24.3654 96.0973 23.9687 96.2995 23.5332L98.7028 24.7932C98.485 25.1976 98.1661 25.641 97.7461 26.1232C97.3417 26.5898 96.7973 26.9943 96.1128 27.3365C95.4284 27.6632 94.5573 27.8265 93.4995 27.8265ZM90.6761 20.3832H96.0895C96.0273 19.7143 95.755 19.1776 95.2728 18.7732C94.8061 18.3687 94.1917 18.1665 93.4295 18.1665C92.6361 18.1665 92.0061 18.3687 91.5395 18.7732C91.0728 19.1776 90.785 19.7143 90.6761 20.3832Z" fill="#0C111D"/>
<path d="M110.861 27.8265C109.601 27.8265 108.489 27.601 107.524 27.1498C106.56 26.6987 105.805 26.0532 105.261 25.2132C104.716 24.3732 104.444 23.3621 104.444 22.1798V21.5265H107.477V22.1798C107.477 23.1598 107.781 23.8987 108.387 24.3965C108.994 24.8787 109.819 25.1198 110.861 25.1198C111.919 25.1198 112.704 24.9098 113.217 24.4898C113.746 24.0698 114.011 23.5332 114.011 22.8798C114.011 22.4287 113.879 22.0632 113.614 21.7832C113.365 21.5032 112.992 21.2776 112.494 21.1065C112.012 20.9198 111.421 20.7487 110.721 20.5932L110.184 20.4765C109.064 20.2276 108.1 19.9165 107.291 19.5432C106.497 19.1543 105.883 18.6487 105.447 18.0265C105.027 17.4043 104.817 16.5954 104.817 15.5998C104.817 14.6043 105.051 13.7565 105.517 13.0565C106 12.341 106.669 11.7965 107.524 11.4232C108.395 11.0343 109.414 10.8398 110.581 10.8398C111.747 10.8398 112.782 11.0421 113.684 11.4465C114.602 11.8354 115.317 12.4265 115.831 13.2198C116.36 13.9976 116.624 14.9776 116.624 16.1598V16.8598H113.591V16.1598C113.591 15.5376 113.466 15.0398 113.217 14.6665C112.984 14.2776 112.642 13.9976 112.191 13.8265C111.74 13.6398 111.203 13.5465 110.581 13.5465C109.647 13.5465 108.955 13.7254 108.504 14.0832C108.069 14.4254 107.851 14.8998 107.851 15.5065C107.851 15.911 107.952 16.2532 108.154 16.5332C108.372 16.8132 108.691 17.0465 109.111 17.2332C109.531 17.4198 110.067 17.5832 110.721 17.7232L111.257 17.8398C112.424 18.0887 113.435 18.4076 114.291 18.7965C115.162 19.1854 115.839 19.6987 116.321 20.3365C116.803 20.9743 117.044 21.791 117.044 22.7865C117.044 23.7821 116.787 24.661 116.274 25.4232C115.776 26.1698 115.061 26.761 114.127 27.1965C113.21 27.6165 112.121 27.8265 110.861 27.8265Z" fill="#0C111D"/>
<path d="M122.701 27.4998C121.939 27.4998 121.317 27.2665 120.834 26.7998C120.368 26.3176 120.134 25.6798 120.134 24.8865V18.3532H117.241V15.9265H120.134V12.3332H123.074V15.9265H126.248V18.3532H123.074V24.3732C123.074 24.8398 123.292 25.0732 123.728 25.0732H125.968V27.4998H122.701Z" fill="#0C111D"/>
<path d="M131.999 27.8265C131.066 27.8265 130.202 27.601 129.409 27.1498C128.616 26.6832 127.978 26.0065 127.496 25.1198C127.013 24.2332 126.772 23.1598 126.772 21.8998V21.5265C126.772 20.2665 127.013 19.1932 127.496 18.3065C127.978 17.4198 128.616 16.751 129.409 16.2998C130.218 15.8332 131.081 15.5998 131.999 15.5998C133.057 15.5998 133.858 15.7787 134.402 16.1365C134.962 16.4787 135.374 16.8754 135.639 17.3265H136.059V15.9265H138.952V24.3732C138.952 24.8398 139.17 25.0732 139.606 25.0732H140.539V27.4998H138.206C137.646 27.4998 137.179 27.3443 136.806 27.0332C136.448 26.7221 136.269 26.2943 136.269 25.7498V25.7265H135.849C135.584 26.3021 135.157 26.7998 134.566 27.2198C133.99 27.6243 133.134 27.8265 131.999 27.8265ZM132.886 25.2598C133.803 25.2598 134.558 24.9721 135.149 24.3965C135.756 23.8054 136.059 22.9498 136.059 21.8298V21.5965C136.059 20.4765 135.756 19.6287 135.149 19.0532C134.542 18.4621 133.788 18.1665 132.886 18.1665C131.983 18.1665 131.229 18.4621 130.622 19.0532C130.016 19.6287 129.712 20.4765 129.712 21.5965V21.8298C129.712 22.9498 130.016 23.8054 130.622 24.3965C131.229 24.9721 131.983 25.2598 132.886 25.2598Z" fill="#0C111D"/>
<path d="M141.569 27.4998V15.9265H144.463V17.2332H144.883C145.054 16.7665 145.334 16.4243 145.723 16.2065C146.127 15.9887 146.594 15.8798 147.123 15.8798H148.523V18.4932H147.076C146.329 18.4932 145.715 18.6954 145.233 19.0998C144.75 19.4887 144.509 20.0954 144.509 20.9198V27.4998H141.569Z" fill="#0C111D"/>
</svg>
